<mxfile host="app.diagrams.net" agent="Mozilla/5.0 (X11; Ubuntu; Linux x86_64; rv:132.0) Gecko/20100101 Firefox/132.0" version="24.8.6">
  <diagram name="Page-1" id="byQCWwYyl0_GtrCXOEUb">
    <mxGraphModel dx="1195" dy="796" grid="1" gridSize="10" guides="1" tooltips="1" connect="1" arrows="1" fold="1" page="1" pageScale="1" pageWidth="850" pageHeight="1100" math="0" shadow="0">
      <root>
        <mxCell id="0" />
        <mxCell id="1" parent="0" />
        <mxCell id="HLn01vK5-egEBSy7eWto-2" value="" style="endArrow=none;html=1;rounded=0;entryX=0.5;entryY=1;entryDx=0;entryDy=0;" edge="1" parent="1" source="HLn01vK5-egEBSy7eWto-10" target="HLn01vK5-egEBSy7eWto-18">
          <mxGeometry width="50" height="50" relative="1" as="geometry">
            <mxPoint x="425" y="320" as="sourcePoint" />
            <mxPoint x="420" y="190" as="targetPoint" />
          </mxGeometry>
        </mxCell>
        <mxCell id="HLn01vK5-egEBSy7eWto-4" value="" style="endArrow=none;html=1;rounded=0;" edge="1" parent="1">
          <mxGeometry width="50" height="50" relative="1" as="geometry">
            <mxPoint x="200" y="320" as="sourcePoint" />
            <mxPoint x="640" y="320" as="targetPoint" />
          </mxGeometry>
        </mxCell>
        <mxCell id="HLn01vK5-egEBSy7eWto-6" value="" style="endArrow=none;html=1;rounded=0;" edge="1" parent="1">
          <mxGeometry width="50" height="50" relative="1" as="geometry">
            <mxPoint x="200" y="450" as="sourcePoint" />
            <mxPoint x="200" y="320" as="targetPoint" />
          </mxGeometry>
        </mxCell>
        <mxCell id="HLn01vK5-egEBSy7eWto-8" value="" style="endArrow=none;html=1;rounded=0;" edge="1" parent="1">
          <mxGeometry width="50" height="50" relative="1" as="geometry">
            <mxPoint x="640" y="450" as="sourcePoint" />
            <mxPoint x="640" y="320" as="targetPoint" />
          </mxGeometry>
        </mxCell>
        <mxCell id="HLn01vK5-egEBSy7eWto-9" value="Web Server" style="sketch=0;outlineConnect=0;fontColor=#232F3E;gradientColor=none;strokeColor=#232F3E;fillColor=#ffffff;dashed=0;verticalLabelPosition=bottom;verticalAlign=top;align=center;html=1;fontSize=12;fontStyle=0;aspect=fixed;shape=mxgraph.aws4.resourceIcon;resIcon=mxgraph.aws4.client;" vertex="1" parent="1">
          <mxGeometry x="170" y="440" width="60" height="60" as="geometry" />
        </mxCell>
        <mxCell id="HLn01vK5-egEBSy7eWto-12" value="" style="endArrow=none;html=1;rounded=0;entryX=0.5;entryY=1;entryDx=0;entryDy=0;" edge="1" parent="1" target="HLn01vK5-egEBSy7eWto-10">
          <mxGeometry width="50" height="50" relative="1" as="geometry">
            <mxPoint x="420" y="320" as="sourcePoint" />
            <mxPoint x="425" y="250" as="targetPoint" />
          </mxGeometry>
        </mxCell>
        <mxCell id="HLn01vK5-egEBSy7eWto-10" value="PfSense" style="image;html=1;image=img/lib/clip_art/networking/Firewall_02_128x128.png" vertex="1" parent="1">
          <mxGeometry x="380" y="210" width="80" height="80" as="geometry" />
        </mxCell>
        <mxCell id="HLn01vK5-egEBSy7eWto-13" value="Email Server" style="sketch=0;outlineConnect=0;fontColor=#232F3E;gradientColor=none;strokeColor=#232F3E;fillColor=#ffffff;dashed=0;verticalLabelPosition=bottom;verticalAlign=top;align=center;html=1;fontSize=12;fontStyle=0;aspect=fixed;shape=mxgraph.aws4.resourceIcon;resIcon=mxgraph.aws4.client;" vertex="1" parent="1">
          <mxGeometry x="610" y="440" width="60" height="60" as="geometry" />
        </mxCell>
        <mxCell id="HLn01vK5-egEBSy7eWto-14" value="" style="endArrow=none;html=1;rounded=0;" edge="1" parent="1">
          <mxGeometry width="50" height="50" relative="1" as="geometry">
            <mxPoint x="419.65999999999997" y="450" as="sourcePoint" />
            <mxPoint x="419.65999999999997" y="320" as="targetPoint" />
          </mxGeometry>
        </mxCell>
        <mxCell id="HLn01vK5-egEBSy7eWto-15" value="Email Server" style="sketch=0;outlineConnect=0;fontColor=#232F3E;gradientColor=none;strokeColor=#232F3E;fillColor=#ffffff;dashed=0;verticalLabelPosition=bottom;verticalAlign=top;align=center;html=1;fontSize=12;fontStyle=0;aspect=fixed;shape=mxgraph.aws4.resourceIcon;resIcon=mxgraph.aws4.client;" vertex="1" parent="1">
          <mxGeometry x="390" y="440" width="60" height="60" as="geometry" />
        </mxCell>
        <mxCell id="HLn01vK5-egEBSy7eWto-16" value="PfSense" style="image;html=1;image=img/lib/clip_art/networking/Firewall_02_128x128.png" vertex="1" parent="1">
          <mxGeometry x="380" y="720" width="80" height="80" as="geometry" />
        </mxCell>
        <mxCell id="HLn01vK5-egEBSy7eWto-18" value="Server Rack - Name TBD" style="image;html=1;image=img/lib/clip_art/networking/Router_Icon_128x128.png" vertex="1" parent="1">
          <mxGeometry x="380" y="90" width="80" height="80" as="geometry" />
        </mxCell>
        <mxCell id="HLn01vK5-egEBSy7eWto-19" value="" style="endArrow=none;html=1;rounded=0;" edge="1" parent="1" source="HLn01vK5-egEBSy7eWto-15" target="HLn01vK5-egEBSy7eWto-16">
          <mxGeometry width="50" height="50" relative="1" as="geometry">
            <mxPoint x="420" y="530" as="sourcePoint" />
            <mxPoint x="420" y="640" as="targetPoint" />
          </mxGeometry>
        </mxCell>
        <mxCell id="HLn01vK5-egEBSy7eWto-20" value="" style="endArrow=none;html=1;rounded=0;" edge="1" parent="1" target="HLn01vK5-egEBSy7eWto-16">
          <mxGeometry width="50" height="50" relative="1" as="geometry">
            <mxPoint x="420" y="880" as="sourcePoint" />
            <mxPoint x="420" y="860" as="targetPoint" />
          </mxGeometry>
        </mxCell>
        <mxCell id="HLn01vK5-egEBSy7eWto-21" value="" style="endArrow=none;html=1;rounded=0;" edge="1" parent="1">
          <mxGeometry width="50" height="50" relative="1" as="geometry">
            <mxPoint x="200" y="880" as="sourcePoint" />
            <mxPoint x="640" y="880" as="targetPoint" />
          </mxGeometry>
        </mxCell>
        <mxCell id="HLn01vK5-egEBSy7eWto-22" value="" style="endArrow=none;html=1;rounded=0;" edge="1" parent="1">
          <mxGeometry width="50" height="50" relative="1" as="geometry">
            <mxPoint x="200" y="960" as="sourcePoint" />
            <mxPoint x="200" y="880" as="targetPoint" />
          </mxGeometry>
        </mxCell>
        <mxCell id="HLn01vK5-egEBSy7eWto-23" value="" style="endArrow=none;html=1;rounded=0;" edge="1" parent="1">
          <mxGeometry width="50" height="50" relative="1" as="geometry">
            <mxPoint x="320" y="960" as="sourcePoint" />
            <mxPoint x="320" y="880" as="targetPoint" />
          </mxGeometry>
        </mxCell>
        <mxCell id="HLn01vK5-egEBSy7eWto-24" value="" style="endArrow=none;html=1;rounded=0;" edge="1" parent="1">
          <mxGeometry width="50" height="50" relative="1" as="geometry">
            <mxPoint x="419.65999999999997" y="960" as="sourcePoint" />
            <mxPoint x="419.65999999999997" y="880" as="targetPoint" />
          </mxGeometry>
        </mxCell>
        <mxCell id="HLn01vK5-egEBSy7eWto-25" value="" style="endArrow=none;html=1;rounded=0;" edge="1" parent="1">
          <mxGeometry width="50" height="50" relative="1" as="geometry">
            <mxPoint x="520" y="960" as="sourcePoint" />
            <mxPoint x="520" y="880" as="targetPoint" />
          </mxGeometry>
        </mxCell>
        <mxCell id="HLn01vK5-egEBSy7eWto-26" value="" style="endArrow=none;html=1;rounded=0;" edge="1" parent="1">
          <mxGeometry width="50" height="50" relative="1" as="geometry">
            <mxPoint x="639.6600000000001" y="960" as="sourcePoint" />
            <mxPoint x="639.6600000000001" y="880" as="targetPoint" />
          </mxGeometry>
        </mxCell>
        <mxCell id="HLn01vK5-egEBSy7eWto-27" value="Virtual Client" style="sketch=0;outlineConnect=0;fontColor=#232F3E;gradientColor=none;strokeColor=#232F3E;fillColor=#ffffff;dashed=0;verticalLabelPosition=bottom;verticalAlign=top;align=center;html=1;fontSize=12;fontStyle=0;aspect=fixed;shape=mxgraph.aws4.resourceIcon;resIcon=mxgraph.aws4.client;" vertex="1" parent="1">
          <mxGeometry x="170" y="960" width="60" height="60" as="geometry" />
        </mxCell>
        <mxCell id="HLn01vK5-egEBSy7eWto-28" value="Virtual Client" style="sketch=0;outlineConnect=0;fontColor=#232F3E;gradientColor=none;strokeColor=#232F3E;fillColor=#ffffff;dashed=0;verticalLabelPosition=bottom;verticalAlign=top;align=center;html=1;fontSize=12;fontStyle=0;aspect=fixed;shape=mxgraph.aws4.resourceIcon;resIcon=mxgraph.aws4.client;" vertex="1" parent="1">
          <mxGeometry x="290" y="960" width="60" height="60" as="geometry" />
        </mxCell>
        <mxCell id="HLn01vK5-egEBSy7eWto-29" value="Virtual Client" style="sketch=0;outlineConnect=0;fontColor=#232F3E;gradientColor=none;strokeColor=#232F3E;fillColor=#ffffff;dashed=0;verticalLabelPosition=bottom;verticalAlign=top;align=center;html=1;fontSize=12;fontStyle=0;aspect=fixed;shape=mxgraph.aws4.resourceIcon;resIcon=mxgraph.aws4.client;" vertex="1" parent="1">
          <mxGeometry x="390" y="960" width="60" height="60" as="geometry" />
        </mxCell>
        <mxCell id="HLn01vK5-egEBSy7eWto-30" value="Virtual Client" style="sketch=0;outlineConnect=0;fontColor=#232F3E;gradientColor=none;strokeColor=#232F3E;fillColor=#ffffff;dashed=0;verticalLabelPosition=bottom;verticalAlign=top;align=center;html=1;fontSize=12;fontStyle=0;aspect=fixed;shape=mxgraph.aws4.resourceIcon;resIcon=mxgraph.aws4.client;" vertex="1" parent="1">
          <mxGeometry x="490" y="960" width="60" height="60" as="geometry" />
        </mxCell>
        <mxCell id="HLn01vK5-egEBSy7eWto-31" value="Virtual Client" style="sketch=0;outlineConnect=0;fontColor=#232F3E;gradientColor=none;strokeColor=#232F3E;fillColor=#ffffff;dashed=0;verticalLabelPosition=bottom;verticalAlign=top;align=center;html=1;fontSize=12;fontStyle=0;aspect=fixed;shape=mxgraph.aws4.resourceIcon;resIcon=mxgraph.aws4.client;" vertex="1" parent="1">
          <mxGeometry x="610" y="960" width="60" height="60" as="geometry" />
        </mxCell>
        <mxCell id="HLn01vK5-egEBSy7eWto-32" value="" style="endArrow=none;html=1;rounded=0;" edge="1" parent="1" target="HLn01vK5-egEBSy7eWto-29">
          <mxGeometry width="50" height="50" relative="1" as="geometry">
            <mxPoint x="420" y="1120" as="sourcePoint" />
            <mxPoint x="470" y="1110" as="targetPoint" />
          </mxGeometry>
        </mxCell>
        <mxCell id="HLn01vK5-egEBSy7eWto-33" value="PfSense" style="image;html=1;image=img/lib/clip_art/networking/Firewall_02_128x128.png" vertex="1" parent="1">
          <mxGeometry x="380" y="1250" width="80" height="80" as="geometry" />
        </mxCell>
        <mxCell id="HLn01vK5-egEBSy7eWto-34" value="" style="endArrow=none;html=1;rounded=0;entryX=0.5;entryY=1;entryDx=0;entryDy=0;" edge="1" parent="1" target="HLn01vK5-egEBSy7eWto-33">
          <mxGeometry width="50" height="50" relative="1" as="geometry">
            <mxPoint x="419.29" y="1400" as="sourcePoint" />
            <mxPoint x="469.29" y="1370" as="targetPoint" />
          </mxGeometry>
        </mxCell>
        <mxCell id="HLn01vK5-egEBSy7eWto-35" value="" style="endArrow=none;html=1;rounded=0;" edge="1" parent="1">
          <mxGeometry width="50" height="50" relative="1" as="geometry">
            <mxPoint x="199.29" y="1400" as="sourcePoint" />
            <mxPoint x="639.29" y="1400" as="targetPoint" />
          </mxGeometry>
        </mxCell>
        <mxCell id="HLn01vK5-egEBSy7eWto-36" value="" style="endArrow=none;html=1;rounded=0;" edge="1" parent="1">
          <mxGeometry width="50" height="50" relative="1" as="geometry">
            <mxPoint x="199.29" y="1480" as="sourcePoint" />
            <mxPoint x="199.29" y="1400" as="targetPoint" />
          </mxGeometry>
        </mxCell>
        <mxCell id="HLn01vK5-egEBSy7eWto-37" value="" style="endArrow=none;html=1;rounded=0;" edge="1" parent="1">
          <mxGeometry width="50" height="50" relative="1" as="geometry">
            <mxPoint x="639.29" y="1480" as="sourcePoint" />
            <mxPoint x="639.29" y="1400" as="targetPoint" />
          </mxGeometry>
        </mxCell>
        <mxCell id="HLn01vK5-egEBSy7eWto-38" value="Virtual Router" style="image;html=1;image=img/lib/clip_art/networking/Router_Icon_128x128.png" vertex="1" parent="1">
          <mxGeometry x="380" y="580" width="80" height="80" as="geometry" />
        </mxCell>
        <mxCell id="HLn01vK5-egEBSy7eWto-39" value="Virtual Router" style="image;html=1;image=img/lib/clip_art/networking/Router_Icon_128x128.png" vertex="1" parent="1">
          <mxGeometry x="380" y="1110" width="80" height="80" as="geometry" />
        </mxCell>
        <mxCell id="HLn01vK5-egEBSy7eWto-40" value="" style="endArrow=none;html=1;rounded=0;exitX=0.5;exitY=0;exitDx=0;exitDy=0;" edge="1" parent="1" source="HLn01vK5-egEBSy7eWto-33" target="HLn01vK5-egEBSy7eWto-39">
          <mxGeometry width="50" height="50" relative="1" as="geometry">
            <mxPoint x="420" y="1240" as="sourcePoint" />
            <mxPoint x="470" y="1190" as="targetPoint" />
          </mxGeometry>
        </mxCell>
        <mxCell id="HLn01vK5-egEBSy7eWto-42" value="&lt;div&gt;DMZ&lt;/div&gt;" style="text;html=1;align=center;verticalAlign=middle;whiteSpace=wrap;rounded=0;" vertex="1" parent="1">
          <mxGeometry x="40" y="410" width="60" height="30" as="geometry" />
        </mxCell>
      </root>
    </mxGraphModel>
  </diagram>
</mxfile>
